<?xml version="1.0" standalone="no"?><!DOCTYPE svg PUBLIC "-//W3C//DTD SVG 1.1//EN" "http://www.w3.org/Graphics/SVG/1.1/DTD/svg11.dtd"><svg class="icon" height="512" viewBox="0 0 1024 1024" version="1.1" xmlns="http://www.w3.org/2000/svg"><path d="M512 0C230.4 0 0 230.4 0 512s230.4 512 512 512 512-230.4 512-512S793.6 0 512 0z" fill="#F5240A" /><path d="M512 832c-32 0-64-32-64-64s32-64 64-64 64 32 64 64-32 64-64 64zM524.8 601.6c0 19.2-25.6 19.2-32 0L448 256S460.8 198.4 512 192c51.2 0 64 64 64 64l-51.2 345.6z" fill="#FFFFFF" /></svg>